<?xml version="1.0" standalone="no"?>
<!DOCTYPE svg PUBLIC "-//W3C//DTD SVG 20010904//EN"
 "http://www.w3.org/TR/2001/REC-SVG-20010904/DTD/svg10.dtd">
<svg version="1.0" xmlns="http://www.w3.org/2000/svg"
 width="468.000000pt" height="84.000000pt" viewBox="0 0 468.000000 84.000000"
 preserveAspectRatio="xMidYMid meet">

<g transform="translate(0.000000,84.000000) scale(0.100000,-0.100000)"
fill="#000000" stroke="none">
<path d="M556 738 c-16 -53 -15 -59 12 -56 22 2 28 9 30 36 3 27 0 32 -18 32
-11 0 -22 -6 -24 -12z"/>
<path d="M1825 738 c-6 -19 -85 -433 -85 -447 0 -7 10 -11 22 -9 20 3 25 19
65 213 49 247 50 255 23 255 -11 0 -23 -6 -25 -12z"/>
<path d="M2386 738 c-16 -53 -15 -59 12 -56 22 2 28 9 30 36 3 27 0 32 -18 32
-11 0 -22 -6 -24 -12z"/>
<path d="M4275 738 c-6 -21 -85 -433 -85 -446 0 -7 11 -12 25 -12 20 0 25 5
25 25 0 28 15 34 24 10 10 -28 72 -47 115 -35 137 37 193 287 75 336 -43 18
-80 12 -129 -22 l-35 -24 5 23 c3 12 11 52 19 90 l14 67 -25 0 c-13 0 -25 -6
-28 -12z m174 -184 c40 -51 16 -165 -44 -212 -34 -27 -95 -29 -118 -4 -41 45
-27 149 28 207 27 29 40 35 73 35 32 0 45 -6 61 -26z"/>
<path d="M2075 731 c-80 -21 -120 -60 -131 -128 -9 -58 18 -85 111 -112 41
-13 82 -29 90 -38 17 -17 20 -56 5 -84 -25 -47 -133 -65 -206 -34 -40 17 -54
13 -54 -15 0 -44 173 -61 245 -24 52 27 85 76 85 126 0 54 -38 90 -115 112
-33 10 -70 24 -82 32 -30 19 -29 55 0 90 19 22 34 28 78 32 30 2 72 -1 94 -7
40 -11 54 -4 55 25 0 21 -124 38 -175 25z"/>
<path d="M74 713 c5 -17 76 -417 76 -428 0 -3 15 -5 33 -5 32 0 35 4 160 220
70 120 127 222 127 225 0 3 -12 5 -27 5 -26 -1 -37 -17 -138 -196 -126 -226
-110 -229 -152 28 l-27 168 -29 0 c-22 0 -27 -4 -23 -17z"/>
<path d="M3536 718 c-2 -7 -20 -98 -40 -203 -20 -104 -39 -200 -41 -212 -5
-23 -5 -23 135 -23 l140 0 0 25 0 25 -105 0 c-93 0 -105 2 -105 18 0 9 16 96
35 192 19 96 35 178 35 183 0 12 -50 8 -54 -5z"/>
<path d="M1479 614 c-32 -9 -48 -21 -52 -35 -4 -16 -2 -19 11 -13 9 4 45 9 78
12 53 4 65 1 83 -17 12 -12 21 -32 21 -45 0 -22 -4 -23 -80 -29 -91 -7 -150
-32 -168 -72 -42 -93 38 -170 135 -130 20 9 46 23 57 33 18 16 19 16 14 -10
-5 -24 -2 -28 18 -28 16 0 25 7 29 23 56 242 50 293 -32 316 -47 13 -57 13
-114 -5z m120 -201 c-21 -58 -66 -93 -121 -93 -80 0 -94 85 -18 113 8 3 45 6
82 6 l67 1 -10 -27z"/>
<path d="M2640 615 c-19 -9 -43 -23 -53 -33 -18 -16 -18 -15 -12 11 6 24 4 27
-18 27 -22 0 -27 -6 -33 -37 -3 -21 -17 -91 -30 -157 -29 -146 -29 -146 -1
-146 21 0 24 7 36 76 20 120 38 170 72 198 38 32 88 35 114 6 18 -20 18 -24
-3 -139 -27 -146 -27 -143 0 -139 20 3 25 15 43 108 12 58 27 115 33 127 32
59 111 82 147 43 18 -20 18 -24 -3 -139 -12 -66 -22 -124 -22 -130 0 -12 36
-15 43 -3 3 4 15 63 27 132 26 142 21 172 -34 199 -35 17 -91 3 -133 -33 l-28
-24 -25 29 c-31 36 -74 44 -120 24z"/>
<path d="M3929 614 c-32 -9 -48 -21 -52 -35 -4 -16 -2 -19 11 -13 9 4 45 9 78
12 53 4 65 1 83 -17 12 -12 21 -32 21 -45 0 -22 -4 -23 -80 -29 -91 -7 -150
-32 -168 -72 -42 -93 38 -170 135 -130 20 9 46 23 57 33 18 16 19 16 14 -10
-5 -24 -2 -28 18 -28 16 0 25 7 29 23 56 242 50 293 -32 316 -47 13 -57 13
-114 -5z m120 -201 c-21 -58 -66 -93 -121 -93 -80 0 -94 85 -18 113 8 3 45 6
82 6 l67 1 -10 -27z"/>
<path d="M524 583 c-3 -21 -17 -91 -30 -157 -30 -147 -30 -148 -2 -144 20 3
25 17 55 163 17 88 32 163 33 168 0 4 -11 7 -25 7 -20 0 -25 -6 -31 -37z"/>
<path d="M680 595 c0 -25 0 -25 98 -25 l97 -1 -127 -122 c-70 -67 -130 -132
-133 -144 l-6 -23 135 0 c76 0 136 4 136 9 0 5 3 16 6 25 5 14 -8 16 -102 16
l-109 1 35 31 c124 111 230 220 230 238 0 19 -7 20 -130 20 l-130 0 0 -25z"/>
<path d="M1002 507 c-12 -62 -22 -127 -22 -144 0 -37 31 -79 65 -87 34 -9 98
9 120 34 24 27 33 25 27 -5 -4 -21 -1 -25 20 -25 23 0 25 6 52 148 15 81 30
157 33 170 4 18 1 22 -20 22 -23 0 -25 -6 -41 -87 -23 -119 -42 -169 -76 -193
-34 -24 -92 -26 -114 -4 -21 20 -20 38 4 162 25 127 25 122 -3 122 -21 0 -24
-8 -45 -113z"/>
<path d="M2354 583 c-3 -21 -17 -91 -30 -157 -30 -147 -30 -148 -2 -144 20 3
25 17 55 163 17 88 32 163 33 168 0 4 -11 7 -25 7 -20 0 -25 -6 -31 -37z"/>
<path d="M3102 507 c-12 -62 -22 -127 -22 -144 0 -37 31 -79 65 -87 34 -9 98
9 120 34 24 27 33 25 27 -5 -4 -21 -1 -25 20 -25 23 0 25 6 52 148 15 81 30
157 33 170 4 18 1 22 -20 22 -23 0 -25 -6 -41 -87 -23 -119 -42 -169 -76 -193
-34 -24 -92 -26 -114 -4 -21 20 -20 38 4 162 25 127 25 122 -3 122 -21 0 -24
-8 -45 -113z"/>
</g>
</svg>
