<svg xmlns="http://www.w3.org/2000/svg" width="128" height="128" viewBox="0 0 128 128" version="1.1"><path d="M 77.750 45.662 C 78.491 45.961, 79 48.007, 79 50.690 C 79 54.301, 78.697 55.098, 77.500 54.638 C 76.279 54.170, 76 55.085, 76 59.563 C 76 63.588, 76.412 65.221, 77.537 65.653 C 83.435 67.916, 83.535 81.345, 77.701 87.750 L 75.651 90 92.326 90 L 109 90 109 85.500 L 109 81 99 81 L 89 81 89 63 L 89 45 82.750 45.079 C 79.313 45.122, 77.063 45.385, 77.750 45.662" stroke="none" fill="#094179" fill-rule="evenodd"/><path d="M 10.167 45.838 C 10.350 46.299, 14.100 56.422, 18.500 68.333 L 26.500 89.990 34 89.992 L 41.500 89.995 45.629 78.748 C 49.146 69.167, 49.573 67.201, 48.510 65.485 C 44.853 59.580, 45.983 51.875, 51.143 47.533 L 54.153 45 49.805 45 L 45.457 45 39.979 60.497 C 33.370 79.191, 34.636 79.190, 28 60.500 L 22.500 45.009 16.167 45.005 C 12.683 45.002, 9.983 45.377, 10.167 45.838" stroke="none" fill="#c3242c" fill-rule="evenodd"/><path d="M 52.898 46.263 C 42.240 53.362, 45.017 67.694, 57.676 70.933 C 68.184 73.621, 69.477 74.341, 69.806 77.689 C 70.358 83.309, 60.221 84.268, 50.948 79.473 C 46.385 77.114, 45.867 77.519, 46.198 83.189 L 46.500 88.378 51.500 89.670 C 69.499 94.319, 81.987 89.008, 81.996 76.700 C 82.003 67.661, 77.500 63.565, 64.747 61.010 C 58.501 59.758, 56.130 57.464, 58.289 54.758 C 60.578 51.888, 68.450 51.816, 77.250 54.584 C 78.740 55.053, 79 54.463, 79 50.614 C 79 43.718, 61.180 40.747, 52.898 46.263" stroke="none" fill="#26ea1c" fill-rule="evenodd"/></svg>